<?xml version="1.0" encoding="UTF-8" standalone="no"?>
<!-- Created with Inkscape (http://www.inkscape.org/) -->

<svg
   width="192mm"
   height="192mm"
   viewBox="0 0 192 192"
   version="1.1"
   id="svg5"
   xml:space="preserve"
   sodipodi:docname="logo.svg"
   inkscape:version="1.4 (e7c3feb100, 2024-10-09)"
   inkscape:export-filename="with-border.png"
   inkscape:export-xdpi="592"
   inkscape:export-ydpi="592"
   xmlns:inkscape="http://www.inkscape.org/namespaces/inkscape"
   xmlns:sodipodi="http://sodipodi.sourceforge.net/DTD/sodipodi-0.dtd"
   xmlns:xlink="http://www.w3.org/1999/xlink"
   xmlns="http://www.w3.org/2000/svg"
   xmlns:svg="http://www.w3.org/2000/svg"><sodipodi:namedview
     id="namedview3633"
     pagecolor="#505050"
     bordercolor="#eeeeee"
     borderopacity="1"
     inkscape:showpageshadow="0"
     inkscape:pageopacity="0"
     inkscape:pagecheckerboard="0"
     inkscape:deskcolor="#505050"
     inkscape:document-units="mm"
     showgrid="false"
     inkscape:zoom="1.1459868"
     inkscape:cx="412.30841"
     inkscape:cy="543.63627"
     inkscape:window-width="2556"
     inkscape:window-height="1436"
     inkscape:window-x="2560"
     inkscape:window-y="0"
     inkscape:window-maximized="1"
     inkscape:current-layer="svg5" /><defs
     id="defs2"><linearGradient
       id="linearGradient89435"><stop
         style="stop-color:#343438;stop-opacity:1;"
         offset="0"
         id="stop89433" /></linearGradient><linearGradient
       id="linearGradient56975"><stop
         style="stop-color:#e6e6e6;stop-opacity:1;"
         offset="0"
         id="stop56971" /><stop
         style="stop-color:#8d8d8f;stop-opacity:0.50196078;"
         offset="0.2"
         id="stop57849" /><stop
         style="stop-color:#343438;stop-opacity:0.5;"
         offset="1"
         id="stop56973" /></linearGradient><linearGradient
       id="linearGradient11407"><stop
         style="stop-color:#e6e6e6;stop-opacity:1;"
         offset="0"
         id="stop11405" /></linearGradient><clipPath
       clipPathUnits="userSpaceOnUse"
       id="clipPath3286"><rect
         style="fill:#af4000;fill-opacity:0.588465;stroke:none;stroke-width:0.529;stroke-linejoin:round;stroke-miterlimit:6.86;paint-order:stroke markers fill"
         id="rect3288"
         width="68.181252"
         height="67.763962"
         x="81.953445"
         y="109.25533" /></clipPath><linearGradient
       xlink:href="#linearGradient56975"
       id="linearGradient56977"
       x1="116.77023"
       y1="194.93527"
       x2="116.77023"
       y2="178.89349"
       gradientUnits="userSpaceOnUse"
       gradientTransform="matrix(1.0071957,0,0,1.0071957,-2.3897663,-1.026846)" /><linearGradient
       xlink:href="#linearGradient56975"
       id="linearGradient58468"
       gradientUnits="userSpaceOnUse"
       x1="116.77023"
       y1="194.93527"
       x2="116.77023"
       y2="178.89349"
       gradientTransform="matrix(1.0071957,0,0,2.3273607,-9.0702085,-255.10726)" /><linearGradient
       xlink:href="#linearGradient56975"
       id="linearGradient59423"
       gradientUnits="userSpaceOnUse"
       gradientTransform="matrix(1.0071957,0,0,2.7176563,4.2906925,-337.94123)"
       x1="116.77023"
       y1="194.93527"
       x2="116.77023"
       y2="178.89349" /><linearGradient
       xlink:href="#linearGradient56975"
       id="linearGradient59448"
       gradientUnits="userSpaceOnUse"
       gradientTransform="matrix(1.0071957,0,0,3.5998561,10.971146,-514.04663)"
       x1="116.77023"
       y1="194.93527"
       x2="116.77023"
       y2="178.89349" /><linearGradient
       xlink:href="#linearGradient56975"
       id="linearGradient59473"
       gradientUnits="userSpaceOnUse"
       gradientTransform="matrix(1.0071957,0,0,1.0286583,17.651603,-18.350261)"
       x1="116.77023"
       y1="194.93527"
       x2="116.77023"
       y2="178.89349" /><linearGradient
       xlink:href="#linearGradient56975"
       id="linearGradient59498"
       gradientUnits="userSpaceOnUse"
       gradientTransform="matrix(1.0071957,0,0,1.671084,24.332057,-152.0811)"
       x1="116.77023"
       y1="194.93527"
       x2="116.77023"
       y2="178.89349" /><linearGradient
       xlink:href="#linearGradient56975"
       id="linearGradient60082"
       gradientUnits="userSpaceOnUse"
       x1="116.77023"
       y1="194.93527"
       x2="116.77023"
       y2="178.89349"
       gradientTransform="matrix(1.0071957,0,0,1.0071957,-15.750676,3.3017659)" /><linearGradient
       xlink:href="#linearGradient56975"
       id="linearGradient60121"
       gradientUnits="userSpaceOnUse"
       gradientTransform="matrix(1.0071957,0,0,3.185748,-22.431129,-425.0733)"
       x1="116.77023"
       y1="194.93527"
       x2="116.77023"
       y2="178.89349" /><linearGradient
       xlink:href="#linearGradient56975"
       id="linearGradient60160"
       gradientUnits="userSpaceOnUse"
       gradientTransform="matrix(1.0071957,0,0,1.41514,-29.16005,-83.258718)"
       x1="116.77023"
       y1="194.93527"
       x2="116.77023"
       y2="178.89349" /><linearGradient
       xlink:href="#linearGradient56975"
       id="linearGradient60121-5"
       gradientUnits="userSpaceOnUse"
       gradientTransform="matrix(1.0071957,0,0,3.185748,-35.888973,-432.38702)"
       x1="116.77023"
       y1="194.93527"
       x2="116.77023"
       y2="178.89349" /><linearGradient
       xlink:href="#linearGradient56975"
       id="linearGradient60121-7"
       gradientUnits="userSpaceOnUse"
       gradientTransform="matrix(1.0071957,0,0,2.3868883,-42.569429,-282.25997)"
       x1="116.77023"
       y1="194.93527"
       x2="116.77023"
       y2="178.89349" /><linearGradient
       xlink:href="#linearGradient56975"
       id="linearGradient60121-9"
       gradientUnits="userSpaceOnUse"
       gradientTransform="matrix(1.0071957,0,0,1.1845559,-49.249885,-56.369142)"
       x1="116.77023"
       y1="194.93527"
       x2="116.77023"
       y2="178.89349" /><linearGradient
       xlink:href="#linearGradient56975"
       id="linearGradient84289"
       gradientUnits="userSpaceOnUse"
       gradientTransform="matrix(1.0071957,0,0,2.3273607,-9.0702085,-254.35906)"
       x1="116.77023"
       y1="194.93527"
       x2="116.77023"
       y2="178.89349" /><linearGradient
       xlink:href="#linearGradient56975"
       id="linearGradient84291"
       gradientUnits="userSpaceOnUse"
       gradientTransform="matrix(1.0071957,0,0,1.0071957,-2.3897663,-0.82323326)"
       x1="116.77023"
       y1="194.93527"
       x2="116.77023"
       y2="178.89349" /><linearGradient
       xlink:href="#linearGradient56975"
       id="linearGradient84293"
       gradientUnits="userSpaceOnUse"
       gradientTransform="matrix(1.0071957,0,0,2.7176563,4.2906925,-337.64751)"
       x1="116.77023"
       y1="194.93527"
       x2="116.77023"
       y2="178.89349" /><linearGradient
       xlink:href="#linearGradient56975"
       id="linearGradient84295"
       gradientUnits="userSpaceOnUse"
       gradientTransform="matrix(1.0071957,0,0,3.5998561,10.971146,-513.80065)"
       x1="116.77023"
       y1="194.93527"
       x2="116.77023"
       y2="178.89349" /><linearGradient
       xlink:href="#linearGradient56975"
       id="linearGradient84297"
       gradientUnits="userSpaceOnUse"
       gradientTransform="matrix(1.0071957,0,0,1.0286583,17.651603,-18.027841)"
       x1="116.77023"
       y1="194.93527"
       x2="116.77023"
       y2="178.89349" /><linearGradient
       xlink:href="#linearGradient56975"
       id="linearGradient84299"
       gradientUnits="userSpaceOnUse"
       gradientTransform="matrix(1.0071957,0,0,1.671084,24.332057,-151.80369)"
       x1="116.77023"
       y1="194.93527"
       x2="116.77023"
       y2="178.89349" /><linearGradient
       xlink:href="#linearGradient56975"
       id="linearGradient84301"
       gradientUnits="userSpaceOnUse"
       gradientTransform="matrix(1.0071957,0,0,1.0071957,-15.750676,2.8580321)"
       x1="116.77023"
       y1="194.93527"
       x2="116.77023"
       y2="178.89349" /><linearGradient
       xlink:href="#linearGradient56975"
       id="linearGradient84303"
       gradientUnits="userSpaceOnUse"
       gradientTransform="matrix(1.0071957,0,0,3.185748,-22.431129,-425.46039)"
       x1="116.77023"
       y1="194.93527"
       x2="116.77023"
       y2="178.89349" /><linearGradient
       xlink:href="#linearGradient56975"
       id="linearGradient84305"
       gradientUnits="userSpaceOnUse"
       gradientTransform="matrix(1.0071957,0,0,1.41514,-29.16005,-83.736297)"
       x1="116.77023"
       y1="194.93527"
       x2="116.77023"
       y2="178.89349" /><linearGradient
       xlink:href="#linearGradient56975"
       id="linearGradient84307"
       gradientUnits="userSpaceOnUse"
       gradientTransform="matrix(1.0071957,0,0,3.185748,-35.888973,-432.9321)"
       x1="116.77023"
       y1="194.93527"
       x2="116.77023"
       y2="178.89349" /><linearGradient
       xlink:href="#linearGradient56975"
       id="linearGradient84309"
       gradientUnits="userSpaceOnUse"
       gradientTransform="matrix(1.0071957,0,0,2.3868883,-42.569429,-282.60495)"
       x1="116.77023"
       y1="194.93527"
       x2="116.77023"
       y2="178.89349" /><linearGradient
       xlink:href="#linearGradient56975"
       id="linearGradient85608"
       gradientUnits="userSpaceOnUse"
       gradientTransform="matrix(1.0071957,0,0,1.1845559,-49.249885,-56.369142)"
       x1="116.77023"
       y1="194.93527"
       x2="116.77023"
       y2="178.89349" /><filter
       style="color-interpolation-filters:sRGB"
       id="filter92067"
       x="-0.15609746"
       y="-0.12636376"
       width="1.3121949"
       height="1.2527275"><feGaussianBlur
         stdDeviation="6"
         result="blur"
         id="feGaussianBlur92059" /><feComposite
         in="SourceGraphic"
         in2="blur"
         operator="atop"
         result="composite1"
         id="feComposite92061" /><feComposite
         in2="composite1"
         operator="in"
         result="composite2"
         id="feComposite92063" /><feComposite
         in2="composite2"
         operator="in"
         result="composite3"
         id="feComposite92065" /></filter></defs><g
     id="g61596"
     style="display:inline"
     transform="matrix(1.4078983,0,0,1.4078983,-51.82932,-112.83294)"><g
       id="g64694"><g
         id="g63459"><path
           id="path83100"
           style="display:inline;opacity:1;mix-blend-mode:normal;fill:#242424;fill-opacity:1;stroke:none;stroke-width:3.49376;stroke-linecap:butt;stroke-linejoin:miter;stroke-dasharray:none;stroke-opacity:1"
           class="UnoptimicedTransforms"
           d="m 102.34311,87.965173 c -3.728242,0.05794 -12.086713,3.142821 -18.623672,5.368148 -6.68464,2.275601 -14.189373,3.859206 -21.213693,4.080371 -2.557897,0.137849 -4.459876,0.02458 -3.607015,3.199288 2.404779,14.15412 1.320707,28.53661 -1.350821,42.56588 -1.341802,7.79321 -2.594773,16.32176 1.164786,23.58564 11.489958,22.40975 25.180546,24.49973 43.640165,35.1574 18.45961,-10.65766 32.12344,-12.74229 43.61704,-35.15017 3.76074,-7.26327 2.50894,-15.79221 1.16841,-23.58564 -2.66925,-14.0297 -3.75067,-28.41215 -1.34359,-42.56588 0.85338,-3.174563 -1.04862,-3.061535 -3.6065,-3.1998 -7.02428,-0.222306 -14.52839,-1.807302 -21.21266,-4.083988 -6.5366,-2.226389 -14.89519,-5.312708 -18.63245,-5.371249 z"
           transform="matrix(0.99078018,0,0,1.003323,3.601394,2.9229275)" /><path
           id="path74404"
           style="display:inline;opacity:1;mix-blend-mode:normal;fill:#343438;fill-opacity:1;stroke:none;stroke-width:3.49376;stroke-linecap:butt;stroke-linejoin:miter;stroke-dasharray:none;stroke-opacity:1;filter:url(#filter92067)"
           class="UnoptimicedTransforms"
           d="m 102.34311,87.965173 c -3.728242,0.05794 -12.086713,3.142821 -18.623672,5.368148 -6.68464,2.275601 -14.189373,3.859206 -21.213693,4.080371 -2.557897,0.137849 -4.459876,0.02458 -3.607015,3.199288 2.404779,14.15412 1.320707,28.53661 -1.350821,42.56588 -1.341802,7.79321 -2.594773,16.32176 1.164786,23.58564 11.489958,22.40975 25.180546,24.49973 43.640165,35.1574 18.45961,-10.65766 32.12344,-12.74229 43.61704,-35.15017 3.76074,-7.26327 2.50894,-15.79221 1.16841,-23.58564 -2.66925,-14.0297 -3.75067,-28.41215 -1.34359,-42.56588 0.85338,-3.174563 -1.04862,-3.061535 -3.6065,-3.1998 -7.02428,-0.222306 -14.52839,-1.807302 -21.21266,-4.083988 -6.5366,-2.226389 -14.89519,-5.312708 -18.63245,-5.371249 z"
           transform="matrix(0.94360018,0,0,0.9555457,8.4298991,9.8479361)" /><path
           id="path61534"
           style="display:inline;opacity:1;mix-blend-mode:normal;fill:none;fill-opacity:0.588465;stroke:#e6e6e6;stroke-width:3.49376;stroke-linecap:butt;stroke-linejoin:miter;stroke-dasharray:none;stroke-opacity:1"
           class="UnoptimicedTransforms"
           d="m 102.34311,87.965173 c -3.728242,0.05794 -12.086713,3.142821 -18.623672,5.368148 -6.68464,2.275601 -14.189373,3.859206 -21.213693,4.080371 -2.557897,0.137849 -4.459876,0.02458 -3.607015,3.199288 2.404779,14.15412 1.320707,28.53661 -1.350821,42.56588 -1.341802,7.79321 -2.594773,16.32176 1.164786,23.58564 11.489958,22.40975 25.180546,24.49973 43.640165,35.1574 18.45961,-10.65766 32.12344,-12.74229 43.61704,-35.15017 3.76074,-7.26327 2.50894,-15.79221 1.16841,-23.58564 -2.66925,-14.0297 -3.75067,-28.41215 -1.34359,-42.56588 0.85338,-3.174563 -1.04862,-3.061535 -3.6065,-3.1998 -7.02428,-0.222306 -14.52839,-1.807302 -21.21266,-4.083988 -6.5366,-2.226389 -14.89519,-5.312708 -18.63245,-5.371249 z"
           transform="matrix(0.94360019,0,0,0.95554569,8.429899,9.8479361)" /><path
           id="path61536"
           style="display:inline;fill:none;stroke:#242425;stroke-width:3.865;stroke-linecap:butt;stroke-linejoin:miter;stroke-dasharray:none;stroke-opacity:1"
           class="UnoptimicedTransforms"
           d="m 102.34311,87.965173 c -3.728242,0.05794 -12.086713,3.142821 -18.623672,5.368148 -6.68464,2.275601 -14.189373,3.859206 -21.213693,4.080371 -2.557897,0.137849 -4.459876,0.02458 -3.607015,3.199288 2.404779,14.15412 1.320707,28.53661 -1.350821,42.56588 -1.341802,7.79321 -2.594773,16.32176 1.164786,23.58564 11.489958,22.40975 25.180546,24.49973 43.640165,35.1574 18.45961,-10.65766 32.12344,-12.74229 43.61704,-35.15017 3.76074,-7.26327 2.50894,-15.79221 1.16841,-23.58564 -2.66925,-14.0297 -3.75067,-28.41215 -1.34359,-42.56588 0.85338,-3.174563 -1.04862,-3.061535 -3.6065,-3.1998 -7.02428,-0.222306 -14.52839,-1.807302 -21.21266,-4.083988 -6.5366,-2.226389 -14.89519,-5.312708 -18.63245,-5.371249 z"
           transform="translate(2.6578189,3.4071017)" /></g><g
         id="g84809"
         style="display:inline"><path
           style="fill:none;stroke:url(#linearGradient84291);stroke-width:0.5;stroke-linecap:round;stroke-linejoin:miter;stroke-dasharray:none;stroke-opacity:1"
           d="M 115.08747,195.55523 V 179.32929"
           id="path61548" /><path
           style="display:inline;fill:none;stroke:url(#linearGradient84301);stroke-width:0.5;stroke-linecap:round;stroke-linejoin:miter;stroke-dasharray:none;stroke-opacity:1"
           d="M 101.72656,199.23651 V 183.01056"
           id="path61550" /><path
           style="display:inline;fill:none;stroke:url(#linearGradient84303);stroke-width:0.5;stroke-linecap:round;stroke-linejoin:miter;stroke-dasharray:none;stroke-opacity:1"
           d="M 95.046102,195.68235 V 144.35989"
           id="path61552" /><path
           style="display:inline;fill:none;stroke:url(#linearGradient84305);stroke-width:0.596935;stroke-linecap:round;stroke-linejoin:miter;stroke-dasharray:none;stroke-opacity:1"
           d="M 88.31718,192.1813 V 169.38337"
           id="path61554" /><path
           style="display:inline;fill:none;stroke:url(#linearGradient84307);stroke-width:0.5;stroke-linecap:round;stroke-linejoin:miter;stroke-dasharray:none;stroke-opacity:1"
           d="M 81.588257,188.21063 V 136.88817"
           id="path61556" /><path
           style="display:inline;fill:none;stroke:url(#linearGradient84309);stroke-width:0.5;stroke-linecap:round;stroke-linejoin:miter;stroke-dasharray:none;stroke-opacity:1"
           d="M 74.907801,182.77974 V 144.32692"
           id="path61558" /><path
           style="display:inline;fill:none;stroke:url(#linearGradient60121-9);stroke-width:0.5;stroke-linecap:round;stroke-linejoin:miter;stroke-dasharray:none;stroke-opacity:1"
           d="M 68.227346,174.5902 V 155.50698"
           id="path61560" /><path
           style="display:inline;fill:none;stroke:url(#linearGradient84289);stroke-width:0.5;stroke-linecap:round;stroke-linejoin:miter;stroke-dasharray:none;stroke-opacity:1"
           d="M 108.40701,199.41925 V 161.92541"
           id="path61562" /><path
           style="display:inline;fill:none;stroke:url(#linearGradient84293);stroke-width:0.5;stroke-linecap:round;stroke-linejoin:miter;stroke-dasharray:none;stroke-opacity:1"
           d="M 121.76792,192.22887 V 148.44736"
           id="path61564" /><path
           style="display:inline;fill:none;stroke:url(#linearGradient84295);stroke-width:0.5;stroke-linecap:round;stroke-linejoin:miter;stroke-dasharray:none;stroke-opacity:1"
           d="M 128.44838,188.08309 V 130.08932"
           id="path61566" /><path
           style="display:inline;fill:none;stroke:url(#linearGradient84297);stroke-width:0.5;stroke-linecap:round;stroke-linejoin:miter;stroke-dasharray:none;stroke-opacity:1"
           d="m 135.12883,182.53531 v -16.5717"
           id="path61568" /><path
           style="display:inline;fill:none;stroke:url(#linearGradient84299);stroke-width:0.5;stroke-linecap:round;stroke-linejoin:miter;stroke-dasharray:none;stroke-opacity:1"
           d="m 141.80929,174.01673 v -26.9212"
           id="path61570" /></g><g
         id="g63225"><path
           style="display:inline;fill:none;fill-opacity:1;stroke:#e6e6e6;stroke-width:2.5;stroke-linecap:round;stroke-linejoin:bevel;stroke-dasharray:none;stroke-opacity:1"
           d="M 105.03531,201.19697 V 128.76304"
           id="path61538" /><path
           style="color:#000000;display:inline;fill:#e6e6e6;stroke-width:0.797269;stroke-linecap:round;stroke-miterlimit:6.86;-inkscape-stroke:none;paint-order:stroke markers fill"
           d="m 95.241151,110.41245 9.794159,-3.96831 9.79416,3.96831 v 14.82958 l -9.79416,3.96859 -9.794159,-3.96859 z"
           id="path61540" /><g
           id="g61546"
           transform="matrix(1.4092286,0,0,1.4092286,-43.09836,-61.416732)"
           style="display:inline"><path
             style="color:#000000;display:inline;fill:#e6e6e6;stroke-width:0.228014;stroke-linecap:round;stroke-miterlimit:6.86;paint-order:stroke markers fill"
             d="m 97.601232,139.69161 2.305542,-1.37885 2.305536,1.37885 v 5.15274 l -2.305536,1.37894 -2.305542,-1.37894 z"
             id="path61542" /><path
             style="fill:none;fill-opacity:1;stroke:#e6e6e6;stroke-width:0.505282;stroke-linecap:butt;stroke-linejoin:miter;stroke-dasharray:none;stroke-opacity:1"
             d="m 100.7149,145.01297 5.16264,2.98064"
             id="path61544" /></g><g
           id="g61576"
           transform="matrix(2.5366115,0,0,2.5366115,-162.59891,-183.35091)"
           style="display:inline"><path
             style="color:#000000;display:inline;fill:#e6e6e6;stroke-width:0.228014;stroke-linecap:round;stroke-miterlimit:6.86;paint-order:stroke markers fill"
             d="m 97.601232,139.69161 2.305542,-1.37885 2.305536,1.37885 v 5.15274 l -2.305536,1.37894 -2.305542,-1.37894 z"
             id="path61572" /><path
             style="fill:none;fill-opacity:1;stroke:#e6e6e6;stroke-width:0.505282;stroke-linecap:butt;stroke-linejoin:miter;stroke-dasharray:none;stroke-opacity:1"
             d="m 100.71239,145.26929 5.16263,2.98065"
             id="path61574" /></g><g
           id="g61582"
           transform="matrix(-2.2547658,0,0,2.2547658,342.77845,-153.81171)"
           style="display:inline"><path
             style="color:#000000;display:inline;fill:#e6e6e6;stroke-width:0.228014;stroke-linecap:round;stroke-miterlimit:6.86;paint-order:stroke markers fill"
             d="m 97.601232,139.69161 2.305542,-1.37885 2.305536,1.37885 v 5.15274 l -2.305536,1.37894 -2.305542,-1.37894 z"
             id="path61578" /><path
             style="fill:none;fill-opacity:1;stroke:#e6e6e6;stroke-width:0.505282;stroke-linecap:butt;stroke-linejoin:miter;stroke-dasharray:none;stroke-opacity:1"
             d="m 100.70571,145.22482 5.16263,2.98064"
             id="path61580" /></g><g
           id="g61588"
           transform="matrix(1.97292,0,0,1.97292,-102.84863,-125.21684)"
           style="display:inline"><path
             style="color:#000000;display:inline;fill:#e6e6e6;stroke-width:0.228014;stroke-linecap:round;stroke-miterlimit:6.86;paint-order:stroke markers fill"
             d="m 97.601232,139.69161 2.305542,-1.37885 2.305536,1.37885 v 5.15274 l -2.305536,1.37894 -2.305542,-1.37894 z"
             id="path61584" /><path
             style="fill:none;fill-opacity:1;stroke:#e6e6e6;stroke-width:0.505282;stroke-linecap:butt;stroke-linejoin:miter;stroke-dasharray:none;stroke-opacity:1"
             d="m 100.71329,145.16258 5.16263,2.98065"
             id="path61586" /></g><g
           id="g61594"
           transform="matrix(-1.6910743,0,0,1.6910743,283.02816,-92.844605)"
           style="display:inline"><path
             style="color:#000000;display:inline;fill:#e6e6e6;stroke-width:0.228014;stroke-linecap:round;stroke-miterlimit:6.86;paint-order:stroke markers fill"
             d="m 97.601232,139.69161 2.305542,-1.37885 2.305536,1.37885 v 5.15274 l -2.305536,1.37894 -2.305542,-1.37894 z"
             id="path61590" /><path
             style="fill:none;fill-opacity:1;stroke:#e6e6e6;stroke-width:0.505282;stroke-linecap:butt;stroke-linejoin:miter;stroke-dasharray:none;stroke-opacity:1"
             d="m 100.70453,145.10319 5.16263,2.98065"
             id="path61592" /></g></g></g></g></svg>
