<svg version="1.1" xmlns="http://www.w3.org/2000/svg" viewBox="0 0 905.1879078872146 419.292585002809" width="905.1879078872146" height="419.292585002809" filter="invert(93%) hue-rotate(180deg)">
  <!-- svg-source:excalidraw -->
  
  <defs>
    <style class="style-fonts">
      @font-face {
        font-family: "Virgil";
        src: url("https://excalidraw.com/Virgil.woff2");
      }
      @font-face {
        font-family: "Cascadia";
        src: url("https://excalidraw.com/Cascadia.woff2");
      }
    </style>
  </defs>
  <g stroke-linecap="round" transform="translate(672.0257050810944 62.55174784942926) rotate(0 102.5 74.5)"><path d="M2.54 1.31 C78.78 -0.2, 154.59 5.75, 202.87 2.03 M-0.37 -1.03 C65.77 1.91, 128.37 4.2, 203.22 -1.18 M202.93 0.03 C207.03 33.48, 201.84 74.89, 202.9 151.92 M206.66 -1.98 C203 43.25, 200.82 87.66, 206.16 150.76 M204.73 145.92 C167.37 147.59, 123.17 148.71, 1.8 149.95 M205.85 150.51 C161.54 147.25, 121.12 146.84, 0.11 150.52 M2.57 145.11 C-1.28 105.59, -1.63 63.49, -1.45 0.37 M-0.61 150.01 C0.8 116.7, 0.3 87.48, 1.88 -1.75" stroke="#000000" stroke-width="1" fill="none"></path></g><g transform="translate(680.7923753081452 89.05174784942926) rotate(0 93.73332977294922 48)"><text x="93.73332977294922" y="0" font-family="Cascadia, Segoe UI Emoji" font-size="20px" fill="#000000" text-anchor="middle" style="white-space: pre;" direction="ltr" dominant-baseline="text-before-edge">FullName</text><text x="93.73332977294922" y="24" font-family="Cascadia, Segoe UI Emoji" font-size="20px" fill="#000000" text-anchor="middle" style="white-space: pre;" direction="ltr" dominant-baseline="text-before-edge"></text><text x="93.73332977294922" y="48" font-family="Cascadia, Segoe UI Emoji" font-size="20px" fill="#000000" text-anchor="middle" style="white-space: pre;" direction="ltr" dominant-baseline="text-before-edge">ShippingLocation</text><text x="93.73332977294922" y="72" font-family="Cascadia, Segoe UI Emoji" font-size="20px" fill="#000000" text-anchor="middle" style="white-space: pre;" direction="ltr" dominant-baseline="text-before-edge">CreditCard</text></g><g transform="translate(649.1879078872146 13.635323223184628) rotate(0 123 16.80000000000001)"><text x="123" y="0" font-family="Cascadia, Segoe UI Emoji" font-size="28px" fill="#000000" text-anchor="middle" style="white-space: pre;" direction="ltr" dominant-baseline="text-before-edge">Customer Entity</text></g><g transform="translate(303.42069133405477 10) rotate(0 98.4000015258789 16.80000000000001)"><text x="98.4000015258789" y="0" font-family="Cascadia, Segoe UI Emoji" font-size="28px" fill="#000000" text-anchor="middle" style="white-space: pre;" direction="ltr" dominant-baseline="text-before-edge">Order Entity</text></g><g stroke-linecap="round" transform="translate(22.136063618129867 103.3154350379665) rotate(0 74.5 58)"><path d="M-2.48 -3.08 C41.92 1.05, 83.13 3.88, 145.23 -3.03 M-0.21 1.9 C46.76 2.63, 93.45 3.98, 150.98 -0.54 M152.13 3 C146.64 37.94, 146.83 67.9, 151.93 115.52 M147.1 -1.7 C151.18 41.32, 152.02 86.27, 149.01 114.37 M145.22 117.91 C105.18 113.76, 69.56 112.29, -3.84 119.03 M147.38 116.01 C102.48 112.48, 53.72 114.86, -0.6 116.9 M0.85 115.56 C2.39 93.02, -0.43 67.15, 3.16 2.99 M-0.52 117.98 C-0.15 75.41, 0.41 30.1, -0.43 -0.9" stroke="#000000" stroke-width="2" fill="none"></path></g><g transform="translate(38.05273155636229 113.3154350379665) rotate(0 58.58333206176758 48)"><text x="58.58333206176758" y="0" font-family="Cascadia, Segoe UI Emoji" font-size="20px" fill="#000000" text-anchor="middle" style="white-space: pre;" direction="ltr" dominant-baseline="text-before-edge">InBasket</text><text x="58.58333206176758" y="24" font-family="Cascadia, Segoe UI Emoji" font-size="20px" fill="#000000" text-anchor="middle" style="white-space: pre;" direction="ltr" dominant-baseline="text-before-edge">Product</text><text x="58.58333206176758" y="48" font-family="Cascadia, Segoe UI Emoji" font-size="20px" fill="#000000" text-anchor="middle" style="white-space: pre;" direction="ltr" dominant-baseline="text-before-edge">CouponCode</text><text x="58.58333206176758" y="72" font-family="Cascadia, Segoe UI Emoji" font-size="20px" fill="#000000" text-anchor="middle" style="white-space: pre;" direction="ltr" dominant-baseline="text-before-edge">UnitPrice</text></g><g transform="translate(10 62.55174784942926) rotate(0 82.01667022705078 12)"><text x="82.01667022705078" y="0" font-family="Cascadia, Segoe UI Emoji" font-size="20px" fill="#000000" text-anchor="middle" style="white-space: pre;" direction="ltr" dominant-baseline="text-before-edge">Item #1 Entity</text></g><g stroke-linecap="round" transform="translate(24.714429109361333 292.80925011122815) rotate(0 74.5 58)"><path d="M-3.82 -2.17 C45.85 -3.49, 86.92 -4, 149.19 -1.52 M0.22 0.49 C52.41 -2.77, 100.15 -0.48, 148.86 -1.85 M151.72 -3.21 C150.56 45.01, 149.17 88.06, 146.17 114.29 M149.7 -1.37 C148.67 40.89, 145.71 84.81, 148.3 114.53 M150.47 119.19 C101.55 120.95, 54.74 116.72, -2.89 113.24 M148.58 117.22 C107.36 118.04, 65.99 117.93, -1.22 114.18 M-3.41 115.5 C0.76 86.49, 2.77 51.09, 3.22 -2.03 M0.32 117.66 C1.97 83.68, 0.65 47.96, -1.9 -1.45" stroke="#000000" stroke-width="1" fill="none"></path></g><g transform="translate(40.631097047593755 302.80925011122815) rotate(0 58.58333206176758 48)"><text x="58.58333206176758" y="0" font-family="Cascadia, Segoe UI Emoji" font-size="20px" fill="#000000" text-anchor="middle" style="white-space: pre;" direction="ltr" dominant-baseline="text-before-edge">InBasket</text><text x="58.58333206176758" y="24" font-family="Cascadia, Segoe UI Emoji" font-size="20px" fill="#000000" text-anchor="middle" style="white-space: pre;" direction="ltr" dominant-baseline="text-before-edge">Product</text><text x="58.58333206176758" y="48" font-family="Cascadia, Segoe UI Emoji" font-size="20px" fill="#000000" text-anchor="middle" style="white-space: pre;" direction="ltr" dominant-baseline="text-before-edge">CouponCode</text><text x="58.58333206176758" y="72" font-family="Cascadia, Segoe UI Emoji" font-size="20px" fill="#000000" text-anchor="middle" style="white-space: pre;" direction="ltr" dominant-baseline="text-before-edge">UnitPrice</text></g><g transform="translate(12.57836549123141 252.04556292269092) rotate(0 82.01667022705078 12)"><text x="82.01667022705078" y="0" font-family="Cascadia, Segoe UI Emoji" font-size="20px" fill="#000000" text-anchor="middle" style="white-space: pre;" direction="ltr" dominant-baseline="text-before-edge">Item #2 Entity</text></g><g transform="translate(157.23856972871033 126.60897057427348) rotate(0 60.56319239439816 -49.4987630146523)" stroke="none"><path fill="#000000" d="M 0,-1.56 Q 0,-1.56 3.01,-1.52 6.02,-1.49 9.31,-1.46 12.60,-1.44 16.34,-1.42 20.09,-1.40 24.30,-1.72 28.52,-2.04 31.97,-2.51 35.42,-2.97 38.55,-3.50 41.68,-4.02 43.89,-4.88 46.11,-5.73 47.92,-7.34 49.74,-8.94 51.62,-10.36 53.51,-11.78 55.16,-14.23 56.81,-16.69 57.84,-19.34 58.87,-21.98 59.30,-25.03 59.73,-28.08 59.92,-32.05 60.11,-36.02 60.20,-39.40 60.28,-42.77 59.99,-46.15 59.69,-49.52 59.23,-52.28 58.78,-55.03 58.58,-58.30 58.37,-61.57 58.29,-64.63 58.20,-67.69 58.51,-70.08 58.81,-72.48 59.64,-74.93 60.47,-77.37 61.89,-79.51 63.31,-81.65 64.90,-83.85 66.48,-86.05 68.58,-88.08 70.67,-90.10 73.68,-91.70 76.69,-93.30 80.03,-94.31 83.37,-95.32 87.83,-96.09 92.29,-96.85 96.22,-97.18 100.15,-97.50 103.83,-97.64 107.52,-97.78 110.35,-98.16 113.17,-98.55 115.10,-98.77 117.03,-98.99 118.60,-99.62 120.17,-100.25 120.40,-100.37 120.63,-100.49 120.88,-100.53 121.13,-100.57 121.38,-100.53 121.63,-100.48 121.86,-100.36 122.08,-100.24 122.26,-100.06 122.43,-99.87 122.54,-99.64 122.64,-99.41 122.67,-99.15 122.69,-98.90 122.64,-98.65 122.58,-98.40 122.45,-98.18 122.32,-97.97 122.12,-97.80 121.93,-97.64 121.69,-97.54 121.45,-97.45 121.20,-97.44 120.94,-97.43 120.70,-97.50 120.45,-97.57 120.24,-97.71 120.03,-97.85 119.88,-98.06 119.73,-98.26 119.64,-98.50 119.56,-98.75 119.57,-99.00 119.57,-99.26 119.65,-99.50 119.73,-99.74 119.89,-99.94 120.04,-100.14 120.26,-100.28 120.47,-100.43 120.71,-100.49 120.96,-100.56 121.21,-100.54 121.47,-100.53 121.70,-100.43 121.94,-100.34 122.13,-100.17 122.33,-100.01 122.46,-99.79 122.59,-99.57 122.64,-99.32 122.70,-99.07 122.67,-98.82 122.64,-98.56 122.53,-98.33 122.42,-98.10 122.24,-97.92 122.07,-97.73 122.07,-97.73 122.07,-97.73 119.67,-96.96 117.27,-96.18 115.40,-96.06 113.53,-95.95 110.57,-95.55 107.61,-95.15 103.99,-95.02 100.36,-94.89 96.55,-94.58 92.73,-94.26 88.42,-93.54 84.12,-92.81 81.01,-91.89 77.89,-90.96 75.18,-89.58 72.46,-88.19 70.54,-86.35 68.61,-84.51 67.05,-82.34 65.48,-80.18 64.22,-78.34 62.95,-76.50 62.18,-74.32 61.42,-72.13 61.12,-69.94 60.83,-67.75 60.91,-64.74 61.00,-61.73 61.18,-58.59 61.37,-55.46 61.84,-52.60 62.31,-49.75 62.61,-46.23 62.91,-42.71 62.83,-39.30 62.75,-35.89 62.54,-31.80 62.34,-27.70 61.84,-24.36 61.33,-21.03 60.17,-18.12 59.00,-15.20 57.07,-12.45 55.14,-9.69 53.31,-8.31 51.48,-6.92 49.29,-5.09 47.11,-3.25 44.63,-2.31 42.15,-1.36 38.97,-0.82 35.79,-0.27 32.26,0.21 28.73,0.70 24.41,1.05 20.09,1.40 16.34,1.42 12.60,1.44 9.31,1.46 6.02,1.49 3.01,1.52 0,1.56 -0.18,1.53 -0.37,1.51 -0.54,1.45 -0.72,1.38 -0.88,1.27 -1.03,1.16 -1.16,1.02 -1.28,0.88 -1.37,0.72 -1.46,0.55 -1.50,0.37 -1.55,0.18 -1.55,-0.00 -1.55,-0.18 -1.50,-0.37 -1.46,-0.55 -1.37,-0.72 -1.28,-0.88 -1.16,-1.02 -1.03,-1.16 -0.88,-1.27 -0.72,-1.38 -0.54,-1.45 -0.37,-1.51 -0.18,-1.53 0.00,-1.56 0.00,-1.56 L 0,-1.56 Z"></path></g><g transform="translate(159.56792328234104 318.78063874880604) rotate(0 63.4748843364365 -136.84952127580345)" stroke="none"><path fill="#000000" d="M 0,-1.59 Q 0,-1.59 1.67,-1.65 3.34,-1.70 5.73,-1.65 8.11,-1.59 10.80,-1.56 13.49,-1.52 16.57,-1.82 19.64,-2.12 22.97,-2.57 26.29,-3.03 29.71,-3.55 33.14,-4.07 36.19,-4.94 39.24,-5.81 42.51,-7.16 45.78,-8.51 48.09,-10.04 50.41,-11.57 51.63,-12.85 52.85,-14.12 53.63,-16.14 54.42,-18.16 55.11,-21.67 55.81,-25.17 56.82,-28.14 57.83,-31.11 58.57,-33.96 59.31,-36.81 60.32,-39.76 61.32,-42.71 61.72,-45.83 62.11,-48.94 62.63,-52.35 63.15,-55.75 63.36,-59.14 63.57,-62.53 64.01,-65.72 64.44,-68.91 64.62,-71.54 64.80,-74.17 65.22,-76.70 65.64,-79.24 65.81,-81.90 65.97,-84.57 66.39,-87.13 66.81,-89.69 66.97,-92.69 67.14,-95.69 67.21,-97.99 67.29,-100.28 67.32,-102.92 67.35,-105.57 67.71,-107.80 68.06,-110.03 68.20,-112.87 68.34,-115.71 68.41,-118.27 68.47,-120.84 68.50,-123.26 68.52,-125.69 68.51,-127.72 68.51,-129.76 68.52,-131.96 68.53,-134.17 68.20,-136.35 67.88,-138.53 67.65,-140.20 67.41,-141.86 67.29,-143.60 67.17,-145.34 67.10,-147.08 67.03,-148.82 67.06,-150.91 67.09,-152.99 67.13,-155.21 67.17,-157.43 67.16,-159.38 67.15,-161.33 66.80,-163.02 66.45,-164.71 66.27,-166.57 66.08,-168.43 65.94,-169.89 65.80,-171.34 65.74,-172.98 65.67,-174.61 65.60,-175.97 65.53,-177.34 65.46,-178.59 65.39,-179.84 65.34,-181.04 65.28,-182.24 65.23,-183.42 65.19,-184.60 65.15,-185.77 65.11,-186.94 65.01,-188.46 64.91,-189.98 64.83,-191.21 64.75,-192.44 64.76,-193.70 64.76,-194.96 64.71,-196.54 64.65,-198.11 64.62,-199.45 64.59,-200.78 65.07,-202.03 65.56,-203.28 66.07,-204.79 66.59,-206.31 67.10,-207.88 67.62,-209.46 67.80,-211.19 67.99,-212.91 67.99,-214.30 67.98,-215.69 68.48,-217.63 68.98,-219.57 69.43,-221.50 69.89,-223.43 70.52,-224.44 71.15,-225.45 71.78,-226.73 72.40,-228.01 73.62,-229.52 74.84,-231.03 77.66,-233.64 80.47,-236.26 82.76,-237.79 85.05,-239.33 87.07,-240.60 89.10,-241.88 90.46,-243.55 91.82,-245.21 93.19,-246.72 94.56,-248.23 96.65,-249.62 98.75,-251.01 100.97,-252.23 103.20,-253.45 105.36,-255.20 107.52,-256.96 109.85,-258.75 112.18,-260.54 114.13,-262.26 116.09,-263.98 117.55,-265.66 119.00,-267.34 120.31,-268.80 121.61,-270.26 122.87,-271.34 124.13,-272.42 124.83,-273.24 125.54,-274.07 126.70,-273.82 127.87,-273.58 128.45,-272.33 129.03,-271.09 129.11,-269.80 129.18,-268.52 128.77,-266.47 128.37,-264.41 127.78,-262.27 127.19,-260.12 126.93,-258.00 126.68,-255.89 126.57,-255.57 126.46,-255.25 126.26,-254.98 126.05,-254.71 125.77,-254.52 125.49,-254.33 125.17,-254.24 124.84,-254.15 124.51,-254.17 124.17,-254.18 123.85,-254.31 123.54,-254.43 123.28,-254.65 123.03,-254.87 122.85,-255.16 122.68,-255.45 122.60,-255.78 122.53,-256.11 122.57,-256.44 122.60,-256.78 122.74,-257.09 122.89,-257.39 123.12,-257.64 123.35,-257.89 123.65,-258.04 123.95,-258.20 124.28,-258.26 124.61,-258.31 124.95,-258.26 125.28,-258.20 125.58,-258.05 125.88,-257.89 126.11,-257.64 126.34,-257.40 126.48,-257.09 126.63,-256.78 126.66,-256.45 126.70,-256.11 126.63,-255.78 126.56,-255.45 126.38,-255.16 126.21,-254.87 125.95,-254.65 125.69,-254.44 125.38,-254.31 125.07,-254.18 124.73,-254.17 124.39,-254.15 124.07,-254.24 123.74,-254.33 123.46,-254.52 123.18,-254.71 122.98,-254.97 122.77,-255.24 122.66,-255.56 122.55,-255.88 122.55,-256.22 122.55,-256.56 122.55,-256.56 122.55,-256.56 123.00,-258.75 123.44,-260.95 123.80,-263.05 124.16,-265.16 125.15,-267.51 126.13,-269.86 124.94,-269.07 123.74,-268.28 122.42,-266.91 121.10,-265.54 119.54,-263.71 117.97,-261.88 115.97,-260.06 113.96,-258.25 111.70,-256.45 109.43,-254.65 107.09,-252.69 104.76,-250.73 102.69,-249.50 100.63,-248.27 98.94,-247.06 97.24,-245.85 96.01,-244.38 94.78,-242.92 93.16,-240.73 91.54,-238.55 89.72,-237.08 87.89,-235.61 85.84,-233.83 83.80,-232.04 82.36,-230.79 80.93,-229.55 79.64,-227.85 78.35,-226.16 77.81,-225.06 77.27,-223.97 76.53,-222.52 75.79,-221.08 75.42,-219.79 75.06,-218.51 74.56,-217.04 74.06,-215.57 73.96,-214.03 73.87,-212.50 73.77,-211.26 73.67,-210.02 73.44,-208.93 73.22,-207.84 72.89,-206.50 72.56,-205.17 72.23,-203.71 71.89,-202.25 71.20,-201.32 70.50,-200.40 70.47,-199.26 70.45,-198.11 70.39,-196.54 70.33,-194.96 70.33,-193.70 70.34,-192.44 70.26,-191.21 70.18,-189.98 70.08,-188.46 69.99,-186.94 69.95,-185.77 69.91,-184.60 69.86,-183.42 69.82,-182.25 69.76,-181.05 69.71,-179.85 69.66,-178.61 69.60,-177.37 69.55,-176.02 69.50,-174.67 69.48,-173.09 69.47,-171.50 69.45,-170.10 69.43,-168.70 69.53,-167.00 69.63,-165.29 69.96,-163.32 70.28,-161.34 70.27,-159.39 70.26,-157.44 70.31,-155.22 70.36,-153.01 70.41,-150.94 70.46,-148.88 70.45,-147.16 70.43,-145.45 70.43,-143.79 70.43,-142.12 70.47,-140.52 70.52,-138.91 70.87,-136.54 71.21,-134.16 71.21,-131.96 71.21,-129.75 71.18,-127.70 71.15,-125.66 71.12,-123.22 71.10,-120.77 71.03,-118.18 70.97,-115.58 70.81,-112.59 70.66,-109.60 70.32,-107.57 69.98,-105.53 69.95,-102.86 69.92,-100.19 69.84,-97.87 69.77,-95.54 69.59,-92.40 69.40,-89.26 69.00,-86.83 68.60,-84.40 68.42,-81.60 68.24,-78.81 67.83,-76.40 67.43,-73.99 67.24,-71.27 67.06,-68.55 66.64,-65.46 66.21,-62.36 65.99,-58.86 65.77,-55.35 65.26,-51.98 64.75,-48.60 64.30,-45.23 63.86,-41.86 62.89,-39.00 61.92,-36.13 61.16,-33.19 60.40,-30.24 59.45,-27.44 58.51,-24.64 57.76,-20.88 57.01,-17.12 55.96,-14.64 54.91,-12.17 53.40,-10.75 51.89,-9.33 49.36,-7.67 46.83,-6.01 43.41,-4.59 40.00,-3.17 36.79,-2.25 33.57,-1.32 30.13,-0.76 26.69,-0.21 23.32,0.28 19.95,0.78 16.72,1.15 13.49,1.52 10.80,1.56 8.11,1.59 5.73,1.65 3.34,1.70 1.67,1.65 0,1.59 -0.19,1.57 -0.38,1.55 -0.56,1.48 -0.74,1.41 -0.90,1.30 -1.05,1.19 -1.18,1.05 -1.31,0.90 -1.40,0.73 -1.49,0.56 -1.53,0.37 -1.58,0.19 -1.58,-0.00 -1.58,-0.19 -1.53,-0.37 -1.49,-0.56 -1.40,-0.73 -1.31,-0.90 -1.18,-1.05 -1.05,-1.19 -0.90,-1.30 -0.74,-1.41 -0.56,-1.48 -0.38,-1.55 -0.19,-1.57 0.00,-1.59 0.00,-1.59 L 0,-1.59 Z"></path></g><g transform="translate(286.51769195521405 47.410949750829786) rotate(0 -6.988060660892074 1.747015165223047)" stroke="none"><path fill="#000000" d="M 0.46,2.33 Q 0.46,2.33 -1.21,2.63 -2.89,2.93 -4.54,3.34 -6.18,3.76 -7.72,4.02 -9.25,4.27 -11.07,4.95 -12.89,5.62 -13.26,5.74 -13.62,5.85 -14.01,5.85 -14.40,5.84 -14.76,5.71 -15.13,5.58 -15.43,5.34 -15.73,5.10 -15.95,4.78 -16.16,4.46 -16.25,4.08 -16.35,3.71 -16.32,3.32 -16.30,2.94 -16.15,2.58 -16.00,2.22 -15.74,1.93 -15.49,1.64 -15.15,1.45 -14.82,1.25 -14.44,1.18 -14.06,1.10 -13.68,1.15 -13.29,1.20 -12.94,1.37 -12.60,1.53 -12.32,1.80 -12.04,2.07 -11.87,2.42 -11.69,2.76 -11.64,3.15 -11.58,3.53 -11.65,3.91 -11.72,4.29 -11.91,4.63 -12.09,4.97 -12.38,5.23 -12.66,5.49 -13.02,5.65 -13.37,5.80 -13.76,5.84 -14.14,5.87 -14.52,5.78 -14.89,5.69 -15.22,5.49 -15.55,5.28 -15.79,4.99 -16.04,4.69 -16.18,4.32 -16.31,3.96 -16.33,3.58 -16.34,3.19 -16.23,2.82 -16.12,2.45 -15.90,2.13 -15.68,1.82 -15.37,1.59 -15.05,1.36 -15.06,1.36 -15.06,1.36 -12.48,0.57 -9.90,-0.21 -8.63,-0.36 -7.37,-0.51 -5.58,-1.05 -3.80,-1.59 -2.13,-1.96 -0.46,-2.33 -0.18,-2.35 0.10,-2.38 0.38,-2.33 0.67,-2.28 0.93,-2.17 1.20,-2.05 1.42,-1.88 1.65,-1.71 1.83,-1.48 2.02,-1.26 2.14,-1.00 2.26,-0.74 2.32,-0.46 2.37,-0.18 2.36,0.10 2.35,0.39 2.27,0.66 2.18,0.94 2.04,1.19 1.90,1.43 1.70,1.64 1.50,1.85 1.25,2.00 1.01,2.15 0.74,2.24 0.46,2.33 0.46,2.33 L 0.46,2.33 Z"></path></g><g transform="translate(279.529631294322 27.61144454496889) rotate(0 -10.482090991338168 -5.823383884076748)" stroke="none"><path fill="#000000" d="M -1.41,2.12 Q -1.41,2.12 -2.42,1.47 -3.43,0.82 -5.18,-0.46 -6.94,-1.74 -8.37,-2.67 -9.79,-3.60 -12.07,-4.26 -14.36,-4.93 -15.60,-5.49 -16.85,-6.05 -17.89,-6.69 -18.92,-7.33 -21.10,-8.67 -23.27,-10.01 -23.48,-10.42 -23.68,-10.83 -23.73,-11.29 -23.79,-11.74 -23.70,-12.19 -23.61,-12.64 -23.38,-13.04 -23.15,-13.44 -22.81,-13.74 -22.47,-14.04 -22.04,-14.22 -21.62,-14.40 -21.16,-14.43 -20.71,-14.47 -20.26,-14.35 -19.82,-14.24 -19.43,-13.99 -19.05,-13.74 -18.76,-13.38 -18.48,-13.02 -18.33,-12.59 -18.17,-12.15 -18.16,-11.69 -18.15,-11.24 -18.29,-10.80 -18.43,-10.36 -18.70,-9.99 -18.97,-9.62 -19.35,-9.36 -19.72,-9.09 -20.16,-8.96 -20.60,-8.83 -21.06,-8.85 -21.52,-8.86 -21.95,-9.02 -22.37,-9.19 -22.73,-9.48 -23.08,-9.77 -23.33,-10.15 -23.57,-10.54 -23.68,-10.99 -23.79,-11.43 -23.75,-11.89 -23.70,-12.35 -23.52,-12.77 -23.34,-13.19 -23.03,-13.53 -22.72,-13.87 -22.32,-14.09 -21.91,-14.31 -21.46,-14.39 -21.01,-14.48 -20.56,-14.41 -20.10,-14.34 -19.70,-14.14 -19.29,-13.93 -18.96,-13.60 -18.64,-13.28 -18.64,-13.28 -18.64,-13.28 -16.63,-12.15 -14.61,-11.03 -13.51,-10.54 -12.42,-10.05 -11.43,-9.66 -10.43,-9.27 -8.93,-8.90 -7.42,-8.53 -5.08,-6.88 -2.75,-5.23 -1.67,-4.36 -0.58,-3.50 0.41,-2.81 1.41,-2.12 1.64,-1.92 1.87,-1.72 2.05,-1.47 2.23,-1.22 2.35,-0.93 2.46,-0.64 2.50,-0.34 2.54,-0.04 2.51,0.26 2.48,0.56 2.37,0.85 2.27,1.14 2.10,1.40 1.93,1.65 1.70,1.86 1.48,2.07 1.21,2.22 0.94,2.36 0.64,2.44 0.34,2.52 0.04,2.52 -0.26,2.53 -0.56,2.46 -0.86,2.39 -1.13,2.25 -1.41,2.12 -1.41,2.12 L -1.41,2.12 Z"></path></g><g transform="translate(276.0356009638759 28.776121321784217) rotate(0 -2.3293535536306536 8.152737437707458)" stroke="none"><path fill="#000000" d="M 2.64,0 Q 2.64,0 2.63,1.35 2.63,2.70 2.25,4.27 1.88,5.84 1.06,7.68 0.24,9.52 -0.06,11.50 -0.37,13.49 -1.61,16.16 -2.85,18.83 -3.30,19.05 -3.75,19.27 -4.25,19.34 -4.75,19.41 -5.24,19.31 -5.73,19.21 -6.17,18.96 -6.61,18.72 -6.94,18.34 -7.28,17.97 -7.47,17.50 -7.67,17.04 -7.71,16.54 -7.75,16.04 -7.63,15.55 -7.50,15.07 -7.23,14.64 -6.96,14.22 -6.57,13.91 -6.17,13.59 -5.70,13.42 -5.23,13.25 -4.73,13.24 -4.23,13.22 -3.75,13.37 -3.27,13.52 -2.86,13.82 -2.45,14.11 -2.16,14.52 -1.87,14.93 -1.72,15.41 -1.57,15.89 -1.59,16.39 -1.60,16.89 -1.78,17.37 -1.95,17.84 -2.27,18.23 -2.59,18.62 -3.01,18.89 -3.43,19.16 -3.92,19.28 -4.41,19.40 -4.91,19.35 -5.41,19.31 -5.87,19.11 -6.33,18.91 -6.71,18.58 -7.08,18.24 -7.33,17.80 -7.57,17.36 -7.67,16.87 -7.76,16.38 -7.69,15.88 -7.62,15.38 -7.40,14.93 -7.17,14.48 -6.81,14.13 -6.46,13.77 -6.46,13.77 -6.46,13.77 -6.35,13.07 -6.25,12.36 -5.68,10.83 -5.11,9.29 -4.29,7.70 -3.46,6.10 -3.04,4.38 -2.63,2.65 -2.63,1.32 -2.64,0 -2.60,-0.31 -2.56,-0.63 -2.45,-0.92 -2.33,-1.22 -2.15,-1.48 -1.97,-1.75 -1.73,-1.96 -1.50,-2.17 -1.21,-2.32 -0.93,-2.47 -0.62,-2.54 -0.31,-2.62 0.00,-2.62 0.31,-2.62 0.62,-2.54 0.93,-2.46 1.21,-2.32 1.50,-2.17 1.73,-1.96 1.97,-1.75 2.15,-1.48 2.33,-1.22 2.45,-0.92 2.56,-0.63 2.60,-0.31 2.64,0.00 2.64,0.00 L 2.64,0 Z"></path></g><g stroke-linecap="round" transform="translate(301.5924744000122 54.292585002809005) rotate(0 133 177.5)"><path d="M-1.32 2.72 C59.78 -1.3, 111.4 -1.99, 267.44 -2.13 M1.13 -0.83 C63.41 3.63, 125.3 4.25, 265.19 -1.23 M268 -1.77 C266.36 141.1, 268.64 277.91, 267.99 353.61 M265.88 0.83 C270.19 102.77, 270.53 205.88, 264.74 355.71 M268.38 357.57 C204.75 349.94, 144.15 354, -1.76 354.75 M264.82 353.49 C174.94 351.25, 82.07 351.54, -0.98 355.65 M-0.49 354.91 C-3.81 269.61, -3.45 183.17, -2.46 -0.35 M-0.04 354.54 C-2.89 251.24, -1.59 149.84, -0.69 0.38" stroke="#000000" stroke-width="1" fill="none"></path></g><g transform="translate(340.85914462706296 87.792585002809) rotate(0 93.73332977294922 144)"><text x="93.73332977294922" y="0" font-family="Cascadia, Segoe UI Emoji" font-size="20px" fill="#000000" text-anchor="middle" style="white-space: pre;" direction="ltr" dominant-baseline="text-before-edge">BasketOf</text><text x="93.73332977294922" y="24" font-family="Cascadia, Segoe UI Emoji" font-size="20px" fill="#000000" text-anchor="middle" style="white-space: pre;" direction="ltr" dominant-baseline="text-before-edge"></text><text x="93.73332977294922" y="48" font-family="Cascadia, Segoe UI Emoji" font-size="20px" fill="#000000" text-anchor="middle" style="white-space: pre;" direction="ltr" dominant-baseline="text-before-edge">ShippingLocation</text><text x="93.73332977294922" y="72" font-family="Cascadia, Segoe UI Emoji" font-size="20px" fill="#000000" text-anchor="middle" style="white-space: pre;" direction="ltr" dominant-baseline="text-before-edge">PaymentComplete</text><text x="93.73332977294922" y="96" font-family="Cascadia, Segoe UI Emoji" font-size="20px" fill="#000000" text-anchor="middle" style="white-space: pre;" direction="ltr" dominant-baseline="text-before-edge">OrderPlaced</text><text x="93.73332977294922" y="120" font-family="Cascadia, Segoe UI Emoji" font-size="20px" fill="#000000" text-anchor="middle" style="white-space: pre;" direction="ltr" dominant-baseline="text-before-edge"></text><text x="93.73332977294922" y="144" font-family="Cascadia, Segoe UI Emoji" font-size="20px" fill="#000000" text-anchor="middle" style="white-space: pre;" direction="ltr" dominant-baseline="text-before-edge"></text><text x="93.73332977294922" y="168" font-family="Cascadia, Segoe UI Emoji" font-size="20px" fill="#000000" text-anchor="middle" style="white-space: pre;" direction="ltr" dominant-baseline="text-before-edge">PickingFinished</text><text x="93.73332977294922" y="192" font-family="Cascadia, Segoe UI Emoji" font-size="20px" fill="#000000" text-anchor="middle" style="white-space: pre;" direction="ltr" dominant-baseline="text-before-edge">Shipped</text><text x="93.73332977294922" y="216" font-family="Cascadia, Segoe UI Emoji" font-size="20px" fill="#000000" text-anchor="middle" style="white-space: pre;" direction="ltr" dominant-baseline="text-before-edge"></text><text x="93.73332977294922" y="240" font-family="Cascadia, Segoe UI Emoji" font-size="20px" fill="#000000" text-anchor="middle" style="white-space: pre;" direction="ltr" dominant-baseline="text-before-edge"></text><text x="93.73332977294922" y="264" font-family="Cascadia, Segoe UI Emoji" font-size="20px" fill="#000000" text-anchor="middle" style="white-space: pre;" direction="ltr" dominant-baseline="text-before-edge">PaymentRefunded</text></g><g stroke-linecap="round"><g transform="translate(314.48885891298465 132.70173224965018) rotate(0 121.80298305613222 1.6057211498213348)"><path d="M1.45 1.33 C61.93 4.7, 127.99 0.51, 242.15 0.57" stroke="#000000" stroke-width="1.5" fill="none" stroke-dasharray="1.5 7"></path></g></g><mask></mask><g transform="translate(522.3615883652926 83.15810868851804) rotate(89.99999999999994 28.149999618530273 9.599999999999994)"><text x="28.149999618530273" y="0" font-family="Cascadia, Segoe UI Emoji" font-size="16px" fill="#000000" text-anchor="middle" style="white-space: pre;" direction="ltr" dominant-baseline="text-before-edge">Basket</text></g><g stroke-linecap="round"><g transform="translate(307.6122623244515 227.62444148995866) rotate(0 127.19953510009188 0.8377451607485114)"><path d="M-1.13 1.28 C50.38 -1.88, 109.04 -1.98, 255.53 2.65" stroke="#000000" stroke-width="1.5" fill="none" stroke-dasharray="1.5 7"></path></g></g><mask></mask><g transform="translate(527.5429703970844 166.40989369273808) rotate(89.99999999999994 23.45833396911621 9.599999999999994)"><text x="23.45833396911621" y="0" font-family="Cascadia, Segoe UI Emoji" font-size="16px" fill="#000000" text-anchor="middle" style="white-space: pre;" direction="ltr" dominant-baseline="text-before-edge">Order</text></g><g stroke-linecap="round"><g transform="translate(304.67396403018483 329.7322558474674) rotate(0 131.24258534794922 -0.4740737470874521)"><path d="M-2.04 2.17 C79.75 2.49, 162.14 1.06, 264.52 -3.16" stroke="#000000" stroke-width="1.5" fill="none" stroke-dasharray="1.5 7"></path></g></g><mask></mask><g transform="translate(521.3821556005371 353.97126814342204) rotate(89.99999999999994 28.149999618530273 9.6)"><text x="28.149999618530273" y="0" font-family="Cascadia, Segoe UI Emoji" font-size="16px" fill="#000000" text-anchor="middle" style="white-space: pre;" direction="ltr" dominant-baseline="text-before-edge">Refund</text></g><g transform="translate(513.9576879238714 268.76061760969094) rotate(89.99999999999994 37.53333282470703 9.600000000000001)"><text x="37.53333282470703" y="0" font-family="Cascadia, Segoe UI Emoji" font-size="16px" fill="#000000" text-anchor="middle" style="white-space: pre;" direction="ltr" dominant-baseline="text-before-edge">Shipping</text></g><g transform="translate(501.7564890812065 102.91630884263282) rotate(0 71.63226400562255 -41.69073566464803)" stroke="none"><path fill="#000000" d="M -0.59,-1.59 Q -0.59,-1.59 1.14,-2.25 2.88,-2.91 4.35,-3.78 5.83,-4.66 7.01,-5.81 8.18,-6.97 9.08,-8.13 9.97,-9.28 11.80,-11.09 13.63,-12.90 14.99,-14.64 16.36,-16.39 17.33,-18.54 18.31,-20.69 19.20,-22.74 20.09,-24.79 20.91,-26.94 21.72,-29.09 22.73,-31.76 23.75,-34.43 24.13,-36.34 24.52,-38.25 25.40,-40.52 26.28,-42.78 27.08,-44.79 27.88,-46.80 28.90,-48.80 29.92,-50.80 30.98,-53.32 32.04,-55.84 34.07,-59.20 36.10,-62.56 37.86,-64.88 39.62,-67.20 42.88,-69.60 46.14,-72.00 49.50,-73.87 52.86,-75.75 56.45,-77.63 60.04,-79.51 63.15,-80.76 66.25,-82.02 69.15,-82.79 72.05,-83.55 75.32,-83.89 78.58,-84.22 82.01,-83.92 85.43,-83.62 89.24,-83.27 93.04,-82.92 96.66,-82.33 100.28,-81.75 103.11,-81.28 105.94,-80.81 108.04,-80.40 110.13,-79.98 111.54,-79.68 112.96,-79.38 114.91,-78.52 116.86,-77.65 119.30,-76.87 121.75,-76.09 125.20,-75.09 128.66,-74.08 130.60,-73.45 132.54,-72.81 130.70,-73.69 128.86,-74.56 127.23,-76.97 125.59,-79.38 124.86,-80.06 124.12,-80.73 123.95,-80.98 123.77,-81.22 123.66,-81.50 123.55,-81.78 123.51,-82.08 123.47,-82.38 123.50,-82.68 123.53,-82.99 123.63,-83.27 123.74,-83.55 123.91,-83.81 124.07,-84.06 124.30,-84.26 124.52,-84.47 124.79,-84.61 125.05,-84.75 125.34,-84.83 125.64,-84.91 125.94,-84.91 126.24,-84.92 126.54,-84.85 126.83,-84.78 127.10,-84.65 127.37,-84.51 127.60,-84.31 127.83,-84.12 130.01,-82.78 132.19,-81.45 133.80,-80.06 135.40,-78.68 137.05,-77.43 138.71,-76.19 139.99,-75.23 141.27,-74.27 142.18,-73.34 143.10,-72.42 144.09,-70.64 145.07,-68.85 143.99,-67.37 142.90,-65.89 141.57,-65.42 140.23,-64.95 139.38,-63.84 138.52,-62.73 137.38,-62.02 136.24,-61.31 134.29,-59.95 132.34,-58.59 131.86,-58.47 131.38,-58.35 130.89,-58.39 130.40,-58.43 129.94,-58.62 129.49,-58.82 129.12,-59.15 128.75,-59.48 128.51,-59.91 128.27,-60.34 128.17,-60.82 128.08,-61.31 128.14,-61.80 128.21,-62.29 128.43,-62.73 128.65,-63.17 129.00,-63.52 129.35,-63.87 129.79,-64.09 130.23,-64.31 130.72,-64.38 131.21,-64.45 131.70,-64.35 132.18,-64.26 132.61,-64.02 133.04,-63.78 133.37,-63.41 133.70,-63.04 133.90,-62.59 134.09,-62.13 134.13,-61.64 134.18,-61.15 134.06,-60.67 133.94,-60.19 133.67,-59.77 133.41,-59.36 133.02,-59.05 132.64,-58.74 132.17,-58.57 131.71,-58.40 131.22,-58.38 130.72,-58.37 130.25,-58.51 129.78,-58.66 129.38,-58.94 128.97,-59.23 128.69,-59.63 128.40,-60.03 128.25,-60.51 128.11,-60.98 128.12,-61.47 128.13,-61.97 128.30,-62.43 128.47,-62.89 128.78,-63.28 129.09,-63.67 129.51,-63.93 129.92,-64.20 129.92,-64.20 129.92,-64.20 132.03,-65.31 134.14,-66.43 135.42,-67.70 136.70,-68.98 137.94,-69.63 139.17,-70.28 140.28,-70.54 141.38,-70.79 141.06,-69.52 140.74,-68.26 139.71,-69.63 138.69,-71.00 137.58,-71.92 136.48,-72.83 134.57,-73.95 132.66,-75.07 131.00,-76.16 129.34,-77.26 128.17,-78.03 127.00,-78.80 125.56,-79.77 124.12,-80.73 123.95,-80.98 123.77,-81.22 123.66,-81.50 123.55,-81.78 123.51,-82.08 123.47,-82.38 123.50,-82.68 123.53,-82.98 123.63,-83.27 123.74,-83.55 123.90,-83.81 124.07,-84.06 124.30,-84.26 124.52,-84.47 124.78,-84.61 125.05,-84.75 125.34,-84.83 125.64,-84.91 125.94,-84.91 126.24,-84.92 126.54,-84.85 126.83,-84.78 127.10,-84.65 127.37,-84.51 127.60,-84.31 127.83,-84.12 127.92,-83.97 128.00,-83.82 128.90,-82.73 129.79,-81.63 130.39,-80.46 130.99,-79.28 131.72,-78.42 132.46,-77.55 133.69,-76.17 134.93,-74.78 135.43,-73.18 135.93,-71.58 134.85,-70.63 133.76,-69.69 132.71,-69.87 131.65,-70.06 129.76,-70.70 127.88,-71.33 124.38,-72.31 120.88,-73.28 118.25,-74.06 115.63,-74.85 113.84,-75.63 112.06,-76.41 110.84,-76.90 109.61,-77.39 107.56,-77.81 105.51,-78.22 102.69,-78.69 99.86,-79.15 96.33,-79.73 92.80,-80.31 89.00,-80.65 85.19,-81.00 82.01,-81.30 78.83,-81.60 75.77,-81.30 72.72,-81.01 69.98,-80.29 67.24,-79.58 64.25,-78.37 61.26,-77.17 57.70,-75.31 54.14,-73.45 50.92,-71.65 47.70,-69.85 44.70,-67.72 41.71,-65.58 40.05,-63.37 38.38,-61.17 36.44,-57.99 34.51,-54.80 33.42,-52.19 32.33,-49.57 31.37,-47.68 30.42,-45.80 29.64,-43.79 28.86,-41.78 28.07,-39.73 27.28,-37.67 26.82,-35.56 26.36,-33.46 25.38,-30.78 24.40,-28.10 23.60,-25.88 22.80,-23.65 21.95,-21.55 21.09,-19.45 20.02,-16.97 18.94,-14.48 17.52,-12.51 16.10,-10.53 14.46,-8.71 12.82,-6.89 11.70,-5.66 10.59,-4.43 9.09,-3.05 7.58,-1.67 5.84,-0.68 4.09,0.29 2.34,0.94 0.59,1.59 0.39,1.63 0.19,1.68 -0.00,1.68 -0.21,1.68 -0.40,1.63 -0.60,1.58 -0.78,1.49 -0.97,1.39 -1.12,1.25 -1.27,1.12 -1.39,0.95 -1.50,0.78 -1.58,0.59 -1.65,0.40 -1.67,0.19 -1.69,-0.00 -1.67,-0.20 -1.64,-0.41 -1.57,-0.60 -1.50,-0.79 -1.38,-0.96 -1.26,-1.13 -1.11,-1.26 -0.96,-1.40 -0.77,-1.49 -0.59,-1.59 -0.59,-1.59 L -0.59,-1.59 Z"></path></g></svg>